M48
; DRILL file {KiCad 7.0.5} date Sat Apr  6 13:50:56 2024
; FORMAT={-:-/ absolute / metric / decimal}
; #@! TF.CreationDate,2024-04-06T13:50:56+04:00
; #@! TF.GenerationSoftware,Kicad,Pcbnew,7.0.5
; #@! TF.FileFunction,Plated,1,2,PTH
FMAT,2
METRIC
; #@! TA.AperFunction,Plated,PTH,ComponentDrill
T1C0.700
; #@! TA.AperFunction,Plated,PTH,ComponentDrill
T2C0.750
; #@! TA.AperFunction,Plated,PTH,ComponentDrill
T3C0.800
; #@! TA.AperFunction,Plated,PTH,ComponentDrill
T4C0.900
; #@! TA.AperFunction,Plated,PTH,ComponentDrill
T5C1.000
; #@! TA.AperFunction,Plated,PTH,ComponentDrill
T6C1.200
; #@! TA.AperFunction,Plated,PTH,ComponentDrill
T7C1.300
; #@! TA.AperFunction,Plated,PTH,ComponentDrill
T8C1.500
%
G90
G05
T1
X114.3Y171.45
X114.3Y176.53
X114.3Y179.07
T2
X69.85Y152.4
X71.12Y152.4
X72.39Y152.4
X88.9Y152.4
X90.17Y152.4
X91.44Y152.4
T3
X63.5Y158.75
X63.5Y173.99
X67.31Y127.0
X69.85Y158.75
X69.85Y173.99
X72.39Y133.35
X72.39Y140.97
X74.93Y133.35
X74.93Y140.97
X76.2Y153.67
X76.2Y156.21
X76.2Y158.75
X76.2Y161.29
X76.2Y165.1
X76.2Y171.45
X77.47Y133.35
X77.47Y140.97
X80.01Y133.35
X80.01Y140.97
X82.55Y127.0
X82.55Y133.35
X82.55Y140.97
X83.82Y153.67
X83.82Y156.21
X83.82Y158.75
X83.82Y161.29
X85.09Y133.35
X85.09Y140.97
X87.63Y133.35
X87.63Y140.97
X88.9Y114.3
X88.9Y129.54
X90.17Y133.35
X90.17Y140.97
X91.44Y165.1
X91.44Y171.45
X95.25Y114.3
X95.25Y129.54
X95.25Y137.16
X95.25Y152.4
X101.6Y114.3
X101.6Y129.54
T4
X67.31Y146.05
X69.85Y146.05
X92.71Y158.75
X95.25Y158.75
T5
X106.8Y139.7
X114.3Y139.7
T6
X49.65Y146.05
X49.65Y165.1
X57.15Y146.05
X57.15Y165.1
X107.95Y120.65
X107.95Y158.75
X115.45Y120.65
X115.45Y158.75
T7
X77.47Y101.6
X77.47Y184.15
X82.55Y101.6
X82.55Y184.15
T8
X57.807Y110.532
X61.307Y118.032
X64.807Y110.532
X81.307Y110.532
X81.307Y118.032
T0
M30
